<?xml version="1.0" standalone="no"?>
<!DOCTYPE svg PUBLIC "-//W3C//DTD SVG 20010904//EN"
 "http://www.w3.org/TR/2001/REC-SVG-20010904/DTD/svg10.dtd">
<svg version="1.0" xmlns="http://www.w3.org/2000/svg"
 width="4247.000000pt" height="3867.000000pt" viewBox="0 0 4247.000000 3867.000000"
 preserveAspectRatio="xMidYMid meet">
<metadata>
Created by potrace 1.16, written by Peter Selinger 2001-2019
</metadata>
<g transform="translate(0.000000,3867.000000) scale(0.100000,-0.100000)"
fill="#000000" stroke="none">
<path d="M33795 34829 c-1624 -21 -2999 -135 -4465 -369 -1892 -302 -3505
-684 -5005 -1185 -558 -187 -902 -321 -1644 -640 -1022 -439 -1399 -613 -1629
-752 -127 -76 -288 -194 -285 -209 1 -5 153 -369 338 -809 185 -440 366 -870
402 -955 36 -85 101 -240 145 -345 45 -104 85 -203 90 -218 7 -20 27 -36 70
-58 l60 -30 53 38 c30 21 125 89 212 152 206 148 690 469 918 609 614 376
1663 966 2276 1280 365 188 899 439 899 423 0 -4 -39 -101 -86 -216 -364 -892
-877 -2176 -1266 -3170 -508 -1299 -1298 -3353 -1298 -3375 0 -10 35 -100 78
-201 l78 -184 1497 -3 1496 -2 70 212 c38 117 154 474 259 793 105 319 337
1030 516 1580 519 1598 914 2755 1486 4365 89 250 170 478 180 505 17 49 17
52 -3 104 -11 30 -35 80 -53 111 -37 64 -206 264 -262 310 -43 36 -228 130
-257 131 -88 3 861 264 1390 383 960 215 1722 306 2570 306 705 0 1376 -69
2061 -211 878 -181 1667 -517 2259 -962 571 -430 1013 -1046 1225 -1712 307
-965 184 -2356 -322 -3625 -90 -226 -309 -669 -435 -880 -841 -1408 -2157
-2649 -3818 -3602 -939 -539 -2250 -1112 -3527 -1542 l-228 -77 -177 102
c-559 321 -1124 568 -1701 743 -537 163 -1193 318 -1742 412 -258 43 -250 42
-250 59 0 13 -72 15 -560 15 l-560 0 9 -22 c5 -13 129 -302 276 -643 147 -341
297 -688 333 -772 36 -84 68 -150 72 -148 3 2 15 38 25 79 22 90 3 85 220 57
641 -83 1134 -231 1563 -469 45 -25 82 -48 82 -52 0 -6 -21 -10 -430 -81 -223
-39 -790 -122 -1050 -154 -74 -10 -137 -19 -139 -20 -2 -2 15 -46 37 -97 22
-51 153 -356 292 -678 138 -322 253 -586 255 -588 4 -4 421 31 760 64 486 47
1026 114 1479 183 l198 31 48 -53 c87 -96 123 -141 196 -252 96 -147 376 -631
480 -830 365 -702 597 -1466 684 -2260 35 -319 121 -1726 195 -3185 35 -690
70 -1056 144 -1505 170 -1027 497 -1847 977 -2450 109 -137 366 -395 499 -500
506 -404 1165 -660 1967 -765 340 -44 494 -54 828 -54 241 0 365 5 480 17 504
56 853 151 1369 369 584 247 1039 504 1501 846 457 339 750 599 1083 962 89
96 215 230 281 298 66 67 115 122 110 122 -6 0 -71 -23 -144 -50 -486 -184
-1274 -358 -1885 -417 -251 -24 -846 -24 -1062 0 -473 53 -894 176 -1243 364
-405 217 -666 558 -795 1036 -14 50 -50 234 -81 407 -163 929 -448 2360 -615
3085 -214 930 -478 1836 -737 2536 -116 313 -403 1018 -488 1201 -146 312
-286 557 -514 899 -155 232 -305 442 -453 632 -54 71 -97 130 -95 131 1 1 113
33 248 70 1456 402 2859 942 4011 1546 2093 1097 3747 2376 4896 3787 1021
1254 1655 2671 1744 3898 33 450 -33 1063 -177 1640 -191 769 -579 1472 -1185
2150 -466 522 -1090 977 -1889 1379 -690 348 -1238 541 -1980 700 -676 144
-1539 237 -2335 251 -159 3 -351 7 -425 8 -74 2 -378 0 -675 -4z"/>
<path d="M21793 22015 c-715 -182 -1337 -479 -1686 -805 -91 -85 -192 -208
-248 -301 -43 -72 -45 -79 -26 -79 8 0 22 -9 32 -20 10 -11 24 -20 30 -20 7 0
18 -7 25 -15 7 -9 32 -25 55 -35 23 -10 48 -26 55 -35 7 -8 18 -15 25 -15 7 0
18 -7 25 -15 7 -9 32 -25 55 -35 23 -10 48 -26 55 -35 7 -8 18 -15 25 -15 7 0
18 -7 25 -15 7 -9 32 -25 55 -35 23 -10 48 -26 55 -35 7 -8 18 -15 25 -15 7 0
18 -7 25 -15 7 -9 32 -25 55 -35 23 -10 48 -26 55 -35 7 -8 18 -15 25 -15 7 0
18 -7 25 -15 7 -9 33 -25 56 -35 24 -11 46 -24 49 -30 3 -6 25 -19 49 -30 23
-10 49 -26 56 -35 7 -8 18 -15 25 -15 7 0 18 -7 25 -15 7 -9 32 -25 55 -35 23
-10 48 -26 55 -35 7 -8 18 -15 25 -15 7 0 18 -7 25 -15 7 -9 32 -25 55 -35 23
-10 48 -26 55 -35 7 -8 18 -15 25 -15 7 0 18 -7 25 -15 7 -9 32 -25 55 -35 23
-10 48 -26 55 -35 7 -8 18 -15 25 -15 7 0 18 -7 25 -15 7 -9 32 -25 55 -35 23
-10 48 -26 55 -35 7 -8 18 -15 25 -15 7 0 18 -7 25 -15 7 -9 32 -25 55 -35 23
-10 48 -26 55 -35 7 -8 18 -15 25 -15 7 0 18 -7 25 -15 7 -9 32 -25 55 -35 23
-10 48 -26 55 -35 7 -8 18 -15 25 -15 7 0 18 -7 25 -15 7 -9 32 -25 55 -35 23
-10 48 -26 55 -35 7 -8 18 -15 25 -15 7 0 18 -7 25 -15 7 -9 32 -25 55 -35 23
-10 48 -26 55 -35 7 -8 18 -15 25 -15 7 0 18 -7 25 -15 7 -9 32 -25 55 -35 23
-10 48 -26 55 -35 7 -8 18 -15 25 -15 7 0 18 -7 25 -15 7 -9 32 -25 55 -35 23
-10 48 -26 55 -35 7 -8 18 -15 25 -15 7 0 18 -7 25 -15 7 -9 32 -25 55 -35 23
-10 48 -26 55 -35 7 -8 18 -15 25 -15 7 0 18 -7 25 -15 7 -9 32 -25 55 -35 23
-10 48 -26 55 -35 7 -8 18 -15 25 -15 7 0 18 -7 25 -15 7 -9 32 -25 55 -35 23
-10 48 -26 55 -35 7 -8 18 -15 25 -15 7 0 18 -7 25 -15 7 -9 32 -25 55 -35 23
-10 48 -26 55 -35 7 -8 18 -15 25 -15 7 0 18 -7 25 -15 7 -9 32 -25 55 -35 23
-10 48 -26 55 -35 7 -8 18 -15 25 -15 7 0 18 -7 25 -15 7 -9 32 -25 55 -35 23
-10 48 -26 55 -35 7 -8 18 -15 25 -15 7 0 18 -7 25 -15 7 -9 33 -25 56 -35 24
-11 46 -24 49 -30 3 -5 13 -10 21 -10 19 0 19 56 -1 94 -8 15 -15 33 -15 40 0
6 -14 38 -30 71 -17 33 -30 64 -30 70 0 5 -14 37 -30 70 -17 33 -30 64 -30 70
0 5 -14 37 -30 70 -17 33 -30 64 -30 70 0 5 -14 37 -30 70 -17 33 -30 64 -30
70 0 5 -14 37 -30 70 -17 33 -30 64 -30 70 0 5 -14 37 -30 70 -17 33 -30 64
-30 70 0 5 -14 37 -30 70 -17 33 -30 63 -30 68 0 4 -9 27 -20 49 -11 23 -20
47 -20 52 0 6 -14 38 -30 71 -17 33 -30 64 -30 70 0 5 -14 37 -30 70 -17 33
-30 64 -30 70 0 5 -14 37 -30 70 -17 33 -30 64 -30 70 0 5 -14 37 -30 70 -17
33 -30 64 -30 70 0 5 -14 37 -30 70 -17 33 -30 64 -30 70 0 5 -14 37 -30 70
-17 33 -30 63 -30 68 0 4 -9 27 -20 49 -11 23 -20 47 -20 52 0 6 -14 38 -30
71 -17 33 -30 64 -30 70 0 5 -14 37 -30 70 -17 33 -30 64 -30 70 0 5 -14 37
-30 70 -17 33 -30 64 -30 70 0 5 -14 37 -30 70 -17 33 -30 64 -30 70 0 5 -14
37 -30 70 -17 33 -30 64 -30 70 0 5 -14 37 -30 70 -17 33 -30 64 -30 70 0 5
-14 37 -30 70 -17 33 -30 63 -30 68 0 4 -9 27 -20 49 -11 23 -20 47 -20 52 0
6 -14 38 -30 71 -17 33 -30 64 -30 70 0 5 -14 37 -30 70 -17 33 -30 65 -30 72
0 21 -32 15 -257 -42z"/>
<path d="M20731 17478 c-319 -814 -617 -1639 -776 -2148 -107 -341 -286 -831
-480 -1315 -269 -671 -515 -1184 -803 -1680 -466 -801 -871 -1343 -1299 -1738
-240 -222 -346 -293 -727 -484 l-290 -145 28 -22 c127 -94 294 -209 416 -284
759 -467 1375 -642 2260 -642 821 0 1510 126 1918 352 399 221 820 628 1115
1078 310 474 861 1676 1277 2790 156 418 506 1437 595 1732 l14 47 -242 203
c-610 513 -1135 929 -1782 1413 -456 341 -1189 865 -1209 865 -4 0 -10 -10
-15 -22z"/>
</g>
</svg>
