<?xml version="1.0" standalone="no"?>
<!DOCTYPE svg PUBLIC "-//W3C//DTD SVG 20010904//EN"
 "http://www.w3.org/TR/2001/REC-SVG-20010904/DTD/svg10.dtd">
<svg version="1.0" xmlns="http://www.w3.org/2000/svg"
 width="4247.000000pt" height="3867.000000pt" viewBox="0 0 4247.000000 3867.000000"
 preserveAspectRatio="xMidYMid meet">
<metadata>
Created by potrace 1.16, written by Peter Selinger 2001-2019
</metadata>
<g transform="translate(0.000000,3867.000000) scale(0.100000,-0.100000)"
fill="#000000" stroke="none">
<path d="M18427 37193 c-2 -5 -1146 -2834 -2542 -6288 -1396 -3454 -2542
-6284 -2546 -6288 -4 -5 -175 -4 -380 2 -3437 102 -6664 166 -8954 177 -2617
14 -3892 -45 -3982 -182 -62 -95 133 -169 732 -278 630 -115 2050 -301 3405
-446 248 -27 783 -104 1240 -180 5151 -855 10062 -2764 14475 -5628 225 -146
733 -485 857 -573 5 -3 -73 -219 -173 -480 -290 -760 -460 -1239 -604 -1698
-107 -341 -285 -831 -480 -1316 -269 -671 -515 -1184 -803 -1680 -466 -801
-871 -1343 -1299 -1738 -240 -222 -346 -293 -727 -484 l-290 -145 28 -22 c127
-94 294 -209 416 -284 759 -467 1375 -642 2260 -642 821 0 1510 126 1918 352
399 221 820 628 1115 1078 310 474 861 1676 1277 2790 169 451 600 1714 600
1757 0 7 3 13 8 13 17 0 798 -694 1182 -1050 506 -470 1314 -1269 1765 -1745
1740 -1837 3274 -3788 4639 -5902 65 -101 123 -183 130 -183 6 0 17 4 24 9 11
6 -596 1424 -2652 6201 -1467 3406 -2665 6194 -2663 6196 1 2 137 15 302 29
717 61 1330 133 1929 224 l198 31 48 -53 c87 -96 123 -141 196 -252 96 -147
376 -631 480 -830 365 -702 597 -1466 684 -2260 35 -319 121 -1726 195 -3185
35 -690 70 -1056 144 -1505 170 -1027 497 -1847 977 -2450 109 -137 366 -395
499 -500 506 -404 1165 -660 1967 -765 340 -44 494 -54 828 -54 241 0 365 5
480 17 504 56 853 151 1369 369 584 247 1039 504 1501 846 457 339 750 599
1083 962 89 96 215 230 281 298 66 67 115 122 110 122 -6 0 -71 -23 -144 -50
-486 -184 -1274 -358 -1885 -417 -251 -24 -846 -24 -1062 0 -473 53 -894 176
-1243 364 -405 217 -666 558 -795 1036 -14 50 -50 234 -81 407 -163 929 -448
2360 -615 3085 -214 930 -478 1836 -737 2536 -116 313 -403 1018 -488 1201
-146 312 -286 557 -514 899 -155 232 -305 442 -453 632 -54 71 -97 130 -95
131 1 1 113 33 248 70 1456 402 2859 942 4011 1546 2093 1097 3747 2376 4896
3787 1021 1254 1655 2671 1744 3898 33 450 -33 1063 -177 1640 -191 769 -579
1472 -1185 2150 -540 604 -1338 1150 -2309 1580 -967 428 -2006 650 -3445 735
-453 27 -1703 27 -2370 1 -1749 -70 -3014 -216 -4820 -556 -1380 -260 -2638
-582 -3830 -980 -558 -187 -902 -321 -1644 -640 -1262 -542 -1572 -692 -1830
-886 l-88 -65 -1159 2754 c-637 1514 -1162 2756 -1166 2758 -3 2 -9 1 -11 -3z
m14708 -3793 c773 -42 1554 -171 2179 -360 590 -178 1195 -476 1631 -803 571
-430 1013 -1046 1225 -1712 307 -965 184 -2356 -322 -3625 -90 -226 -309 -669
-435 -880 -841 -1408 -2157 -2649 -3818 -3602 -939 -539 -2250 -1112 -3527
-1542 l-228 -77 -177 102 c-559 321 -1124 568 -1701 743 -537 163 -1193 318
-1742 412 -258 43 -250 42 -250 59 0 13 250 15 2080 15 1658 0 2080 3 2080 13
-1 6 -272 563 -603 1237 l-603 1225 -1098 3 c-871 2 -1097 5 -1093 15 10 27
509 1555 702 2147 654 2012 1054 3191 1685 4960 l138 385 -21 54 c-11 30 -35
80 -53 111 -37 64 -206 264 -262 310 -43 36 -228 130 -257 131 -88 3 861 264
1390 383 738 165 1396 261 2030 295 224 12 834 12 1050 1z m-6991 -1855 c-664
-1624 -1330 -3319 -2411 -6131 l-158 -411 -906 2151 c-498 1183 -905 2152
-903 2154 1 2 25 -9 54 -23 l52 -26 53 38 c30 21 125 89 212 152 206 148 690
469 918 609 614 376 1663 966 2276 1280 363 187 891 435 897 423 1 -4 -36
-101 -84 -216z m-5706 -5681 c881 -2068 1604 -3768 1608 -3777 4 -12 1 -17
-14 -17 -45 0 -466 -114 -659 -179 -432 -144 -824 -337 -1093 -537 -181 -135
-365 -334 -440 -477 -14 -26 -29 -45 -35 -43 -5 2 -475 295 -1044 650 l-1035
646 465 0 c255 0 959 -5 1563 -10 605 -5 1103 -7 1107 -4 4 2 -12 40 -37 85
-350 632 -842 1169 -1416 1543 -545 355 -1153 569 -1856 653 -216 26 -795 25
-1015 -1 -87 -10 -160 -16 -163 -14 -2 3 538 1181 1202 2619 663 1438 1213
2630 1221 2649 l15 34 13 -29 c7 -17 733 -1722 1613 -3791z m5347 -5183 c641
-83 1134 -231 1563 -469 45 -25 82 -48 82 -52 0 -6 -21 -10 -430 -81 -340 -59
-1186 -178 -1194 -168 -1 2 -62 143 -134 312 l-132 308 22 85 c27 99 5 93 223
65z"/>
<path d="M10617 18083 c-515 -1341 -939 -2446 -943 -2456 -6 -16 71 -17 1551
-15 l1557 3 754 1865 c415 1026 753 1871 751 1879 -1 8 -553 246 -1367 587
-751 316 -1365 574 -1366 574 0 0 -422 -1097 -937 -2437z"/>
</g>
</svg>
