<svg width="519" height="524" viewBox="0 0 519 524" fill="none" xmlns="http://www.w3.org/2000/svg">
<rect y="5" width="519" height="519" rx="74" fill="black"/>
<path d="M153.964 344.99C144.856 344.99 136.606 342.746 129.214 338.258C121.954 333.77 116.212 327.302 111.988 318.854C107.764 310.274 105.652 300.176 105.652 288.56C105.652 268.496 109.942 249.95 118.522 232.922C127.102 215.762 139.774 202.034 156.538 191.738C173.302 181.31 193.432 176.096 216.928 176.096C223 176.096 229.468 176.558 236.332 177.482C243.328 178.406 249.664 179.792 255.34 181.64C259.036 182.696 260.884 185.336 260.884 189.56C260.884 192.992 259.564 196.226 256.924 199.262C254.416 202.298 251.446 203.816 248.014 203.816C246.958 203.816 246.166 203.75 245.638 203.618C238.774 202.034 232.9 200.912 228.016 200.252C223.132 199.46 217.984 199.064 212.572 199.064C195.808 199.064 181.552 203.156 169.804 211.34C158.056 219.392 149.278 230.084 143.47 243.416C137.662 256.748 134.758 271.136 134.758 286.58C134.758 297.8 136.936 306.512 141.292 312.716C145.78 318.788 151.588 321.824 158.716 321.824C166.768 321.824 173.83 318.524 179.902 311.924C185.974 305.324 191.518 294.632 196.534 279.848C201.55 265.064 206.5 245 211.384 219.656C212.176 215.96 213.76 213.452 216.136 212.132C218.512 210.812 221.68 210.152 225.64 210.152C235.012 210.152 239.698 213.188 239.698 219.26C239.698 220.316 239.5 221.636 239.104 223.22C235.672 236.024 232.504 250.214 229.6 265.79C226.828 281.234 225.442 292.982 225.442 301.034C225.442 308.162 226.498 313.376 228.61 316.676C230.722 319.844 233.956 321.428 238.312 321.428C242.536 321.428 246.562 320.042 250.39 317.27C254.218 314.366 259.036 309.482 264.844 302.618C266.428 300.77 268.21 299.846 270.19 299.846C271.906 299.846 273.226 300.638 274.15 302.222C275.206 303.806 275.734 305.984 275.734 308.756C275.734 313.904 274.48 317.996 271.972 321.032C265.504 328.82 259.168 334.76 252.964 338.852C246.76 342.944 239.17 344.99 230.194 344.99C220.954 344.99 213.496 342.35 207.82 337.07C202.144 331.658 198.58 324.068 197.128 314.3C187.36 334.76 172.972 344.99 153.964 344.99ZM444.457 299.846C446.173 299.846 447.493 300.638 448.417 302.222C449.473 303.806 450.001 305.984 450.001 308.756C450.001 313.904 448.747 317.996 446.239 321.032C439.903 328.688 433.501 334.628 427.033 338.852C420.565 342.944 412.909 344.99 404.065 344.99C395.485 344.99 388.159 342.68 382.087 338.06C376.147 333.44 370.471 325.52 365.059 314.3C360.703 305.324 357.271 298.724 354.763 294.5C352.255 290.144 349.747 287.042 347.239 285.194C344.863 283.346 341.893 282.224 338.329 281.828C337.801 284.6 336.283 293.312 333.775 307.964C332.719 314.564 332.059 318.59 331.795 320.042C330.475 328.094 327.835 334.298 323.875 338.654C319.915 342.878 313.909 344.99 305.857 344.99C297.013 344.99 289.159 342.416 282.295 337.268C275.563 331.988 270.349 324.728 266.653 315.488C262.957 306.116 261.109 295.49 261.109 283.61C261.109 261.434 264.937 242.294 272.593 226.19C280.381 210.086 291.205 197.81 305.065 189.362C319.057 180.782 335.161 176.492 353.377 176.492C366.049 176.492 376.675 178.406 385.255 182.234C393.835 186.062 400.171 191.342 404.263 198.074C408.487 204.806 410.599 212.396 410.599 220.844C410.599 228.236 408.817 235.496 405.253 242.624C401.821 249.62 396.607 255.824 389.611 261.236C382.615 266.648 374.101 270.674 364.069 273.314C370.405 275.03 375.289 277.802 378.721 281.63C382.153 285.458 385.585 291.068 389.017 298.46C392.713 306.38 396.343 312.188 399.907 315.884C403.603 319.58 407.827 321.428 412.579 321.428C416.803 321.428 420.829 320.042 424.657 317.27C428.485 314.366 433.303 309.482 439.111 302.618C440.695 300.77 442.477 299.846 444.457 299.846ZM311.005 281.63C306.517 281.63 303.415 280.574 301.699 278.462C300.115 276.35 299.323 273.974 299.323 271.334C299.323 268.166 300.313 265.658 302.293 263.81C304.405 261.962 306.781 261.038 309.421 261.038H314.371C316.483 248.102 318.463 236.948 320.311 227.576C322.027 218.996 327.571 214.706 336.943 214.706C344.467 214.706 348.229 218.072 348.229 224.804C348.229 226.256 348.163 227.378 348.031 228.17L342.091 261.038C349.219 260.642 355.687 258.926 361.495 255.89C367.435 252.854 372.121 248.63 375.553 243.218C379.117 237.806 380.899 231.668 380.899 224.804C380.899 216.488 378.061 209.954 372.385 205.202C366.709 200.45 358.393 198.074 347.437 198.074C334.501 198.074 323.149 201.308 313.381 207.776C303.745 214.112 296.221 223.616 290.809 236.288C285.397 248.828 282.691 264.14 282.691 282.224C282.691 290.672 283.549 297.932 285.265 304.004C286.981 310.076 289.093 314.63 291.601 317.666C294.109 320.702 296.485 322.22 298.729 322.22C300.445 322.22 301.831 321.362 302.887 319.646C304.075 317.93 304.999 315.158 305.659 311.33L311.005 281.63Z" fill="white"/>
</svg>
