<svg width="520" height="519" viewBox="0 0 520 519" fill="none" xmlns="http://www.w3.org/2000/svg">
<rect x="0.57222" width="508.428" height="519" rx="254.214" fill="black"/>
<path d="M87.4 383.44C74.152 383.44 62.152 380.176 51.4 373.648C40.84 367.12 32.488 357.712 26.344 345.424C20.2 332.944 17.128 318.256 17.128 301.36C17.128 272.176 23.368 245.2 35.848 220.432C48.328 195.472 66.76 175.504 91.144 160.528C115.528 145.36 144.808 137.776 178.984 137.776C187.816 137.776 197.224 138.448 207.208 139.792C217.384 141.136 226.6 143.152 234.856 145.84C240.232 147.376 242.92 151.216 242.92 157.36C242.92 162.352 241 167.056 237.16 171.472C233.512 175.888 229.192 178.096 224.2 178.096C222.664 178.096 221.512 178 220.744 177.808C210.76 175.504 202.216 173.872 195.112 172.912C188.008 171.76 180.52 171.184 172.648 171.184C148.264 171.184 127.528 177.136 110.44 189.04C93.352 200.752 80.584 216.304 72.136 235.696C63.688 255.088 59.464 276.016 59.464 298.48C59.464 314.8 62.632 327.472 68.968 336.496C75.496 345.328 83.944 349.744 94.312 349.744C106.024 349.744 116.296 344.944 125.128 335.344C133.96 325.744 142.024 310.192 149.32 288.688C156.616 267.184 163.816 238 170.92 201.136C172.072 195.76 174.376 192.112 177.832 190.192C181.288 188.272 185.896 187.312 191.656 187.312C205.288 187.312 212.104 191.728 212.104 200.56C212.104 202.096 211.816 204.016 211.24 206.32C206.248 224.944 201.64 245.584 197.416 268.24C193.384 290.704 191.368 307.792 191.368 319.504C191.368 329.872 192.904 337.456 195.976 342.256C199.048 346.864 203.752 349.168 210.088 349.168C216.232 349.168 222.088 347.152 227.656 343.12C233.224 338.896 240.232 331.792 248.68 321.808C250.984 319.12 253.576 317.776 256.456 317.776C258.952 317.776 260.872 318.928 262.216 321.232C263.752 323.536 264.52 326.704 264.52 330.736C264.52 338.224 262.696 344.176 259.048 348.592C249.64 359.92 240.424 368.56 231.4 374.512C222.376 380.464 211.336 383.44 198.28 383.44C184.84 383.44 173.992 379.6 165.736 371.92C157.48 364.048 152.296 353.008 150.184 338.8C135.976 368.56 115.048 383.44 87.4 383.44ZM509.934 317.776C512.43 317.776 514.35 318.928 515.694 321.232C517.23 323.536 517.998 326.704 517.998 330.736C517.998 338.224 516.174 344.176 512.526 348.592C503.31 359.728 493.998 368.368 484.59 374.512C475.182 380.464 464.046 383.44 451.182 383.44C438.702 383.44 428.046 380.08 419.214 373.36C410.574 366.64 402.318 355.12 394.446 338.8C388.11 325.744 383.118 316.144 379.47 310C375.822 303.664 372.174 299.152 368.526 296.464C365.07 293.776 360.75 292.144 355.566 291.568C354.798 295.6 352.59 308.272 348.942 329.584C347.406 339.184 346.446 345.04 346.062 347.152C344.142 358.864 340.302 367.888 334.542 374.224C328.782 380.368 320.046 383.44 308.334 383.44C295.47 383.44 284.046 379.696 274.062 372.208C264.27 364.528 256.686 353.968 251.31 340.528C245.934 326.896 243.246 311.44 243.246 294.16C243.246 261.904 248.814 234.064 259.95 210.64C271.278 187.216 287.022 169.36 307.182 157.072C327.534 144.592 350.958 138.352 377.454 138.352C395.886 138.352 411.342 141.136 423.822 146.704C436.302 152.272 445.518 159.952 451.47 169.744C457.614 179.536 460.686 190.576 460.686 202.864C460.686 213.616 458.094 224.176 452.91 234.544C447.918 244.72 440.334 253.744 430.158 261.616C419.982 269.488 407.598 275.344 393.006 279.184C402.222 281.68 409.326 285.712 414.318 291.28C419.31 296.848 424.302 305.008 429.294 315.76C434.67 327.28 439.95 335.728 445.134 341.104C450.51 346.48 456.654 349.168 463.566 349.168C469.71 349.168 475.566 347.152 481.134 343.12C486.702 338.896 493.71 331.792 502.158 321.808C504.462 319.12 507.054 317.776 509.934 317.776ZM315.822 291.28C309.294 291.28 304.782 289.744 302.286 286.672C299.982 283.6 298.83 280.144 298.83 276.304C298.83 271.696 300.27 268.048 303.15 265.36C306.222 262.672 309.678 261.328 313.518 261.328H320.718C323.79 242.512 326.67 226.288 329.358 212.656C331.854 200.176 339.918 193.936 353.55 193.936C364.494 193.936 369.966 198.832 369.966 208.624C369.966 210.736 369.87 212.368 369.678 213.52L361.038 261.328C371.406 260.752 380.814 258.256 389.262 253.84C397.902 249.424 404.718 243.28 409.71 235.408C414.894 227.536 417.486 218.608 417.486 208.624C417.486 196.528 413.358 187.024 405.102 180.112C396.846 173.2 384.75 169.744 368.814 169.744C349.998 169.744 333.486 174.448 319.278 183.856C305.262 193.072 294.318 206.896 286.446 225.328C278.574 243.568 274.638 265.84 274.638 292.144C274.638 304.432 275.886 314.992 278.382 323.824C280.878 332.656 283.95 339.28 287.598 343.696C291.246 348.112 294.702 350.32 297.966 350.32C300.462 350.32 302.478 349.072 304.014 346.576C305.742 344.08 307.086 340.048 308.046 334.48L315.822 291.28Z" fill="white"/>
</svg>
